<mxfile host="65bd71144e">
    <diagram id="07-jS34dCYdT672cfjF7" name="第 1 页">
        <mxGraphModel dx="980" dy="309" grid="1" gridSize="10" guides="1" tooltips="1" connect="1" arrows="1" fold="1" page="1" pageScale="1" pageWidth="827" pageHeight="1169" math="0" shadow="0">
            <root>
                <mxCell id="0"/>
                <mxCell id="1" parent="0"/>
                <mxCell id="2" value="ECStack" style="rounded=0;whiteSpace=wrap;html=1;" vertex="1" parent="1">
                    <mxGeometry x="350" y="20" width="120" height="60" as="geometry"/>
                </mxCell>
                <mxCell id="0WT0ZfsiTSO806LQIeJE-2" value="" style="rounded=0;whiteSpace=wrap;html=1;" vertex="1" parent="1">
                    <mxGeometry x="320" y="110" width="180" height="470" as="geometry"/>
                </mxCell>
                <mxCell id="0WT0ZfsiTSO806LQIeJE-3" value="" style="rounded=0;whiteSpace=wrap;html=1;" vertex="1" parent="1">
                    <mxGeometry x="330" y="420" width="160" height="130" as="geometry"/>
                </mxCell>
                <mxCell id="0WT0ZfsiTSO806LQIeJE-4" value="GEC" style="rounded=0;whiteSpace=wrap;html=1;" vertex="1" parent="1">
                    <mxGeometry x="356" y="380" width="116" height="30" as="geometry"/>
                </mxCell>
                <mxCell id="0WT0ZfsiTSO806LQIeJE-5" value="VO(variable object )：GO" style="rounded=0;whiteSpace=wrap;html=1;" vertex="1" parent="1">
                    <mxGeometry x="330" y="420" width="160" height="60" as="geometry"/>
                </mxCell>
                <mxCell id="0WT0ZfsiTSO806LQIeJE-6" value="开始执行代码" style="rounded=0;whiteSpace=wrap;html=1;" vertex="1" parent="1">
                    <mxGeometry x="330" y="480" width="160" height="70" as="geometry"/>
                </mxCell>
            </root>
        </mxGraphModel>
    </diagram>
</mxfile>